<svg width="800" height="800" viewBox="0 0 800 800" fill="none" xmlns="http://www.w3.org/2000/svg">
<g clip-path="url(#clip0_356_203)">
<path d="M620 40C615.482 34.0414 609.385 29.4684 602.4 26.8C557.011 9.0952 508.719 0.00663309 460 0C353.913 0 252.172 42.1427 177.157 117.157C102.143 192.172 60 293.913 60 400C60 506.086 102.143 607.828 177.157 682.842C252.172 757.857 353.913 800 460 800C508.56 800.071 556.71 791.119 602 773.6C609.18 770.887 615.429 766.166 620 760C697.893 656.142 740 529.822 740 400C740 270.178 697.893 143.858 620 40Z" fill="#F0F0E1"/>
</g>
<defs>
<clipPath id="clip0_356_203">
<rect width="800" height="800" fill="white"/>
</clipPath>
</defs>
</svg>
