<?xml version="1.0" encoding="UTF-8" standalone="no"?>
<!-- Created with Inkscape (http://www.inkscape.org/) -->

<svg
   version="1.1"
   id="svg2076"
   xml:space="preserve"
   width="682.66669"
   height="682.66669"
   viewBox="0 0 682.66669 682.66669"
   xmlns="http://www.w3.org/2000/svg"
   xmlns:svg="http://www.w3.org/2000/svg"><defs
     id="defs2080"><clipPath
       clipPathUnits="userSpaceOnUse"
       id="clipPath2090"><path
         d="M 0,512 H 512 V 0 H 0 Z"
         id="path2088" /></clipPath></defs><g
     id="g2082"
     transform="matrix(1.3333333,0,0,-1.3333333,0,682.66667)"><g
       id="g2084"><g
         id="g2086"
         clip-path="url(#clipPath2090)"><g
           id="g2092"
           transform="translate(107.4941,98.166)"><path
             d="M 0,0 -10.578,-61.673 C -12.679,-73.924 0.18,-83.266 11.181,-77.481 l 137.325,72.195 137.325,-72.195 c 11.002,-5.785 23.86,3.557 21.758,15.808 L 281.363,91.24 392.461,199.534 c 8.9,8.676 3.989,23.792 -8.311,25.579 l -153.534,22.31 -68.662,139.125 c -5.501,11.146 -21.395,11.146 -26.896,0 L 66.396,247.423 -87.138,225.113 c -12.3,-1.787 -17.212,-16.903 -8.311,-25.579 L 15.649,91.24 5.071,29.568"
             style="fill:none;stroke:#000000;stroke-width:15;stroke-linecap:round;stroke-linejoin:round;stroke-miterlimit:10;stroke-dasharray:none;stroke-opacity:1"
             id="path2094" /></g></g></g></g></svg>
