<svg width="64" height="64" viewBox="0 0 64 64" fill="none" xmlns="http://www.w3.org/2000/svg">
<path d="M42.46 3H14.83C14.696 3.00026 14.5633 3.02746 14.44 3.08C14.3233 3.1333 14.2154 3.20411 14.12 3.29V3.29L3.29001 14.12C3.20168 14.2172 3.13065 14.3288 3.08001 14.45C3.02661 14.5695 2.99934 14.6991 3.00001 14.83V55C3.00001 56.5913 3.63215 58.1174 4.75737 59.2426C5.88259 60.3679 7.40871 61 9.00001 61H42.46C44.0513 61 45.5774 60.3679 46.7027 59.2426C47.8279 58.1174 48.46 56.5913 48.46 55V9C48.46 7.4087 47.8279 5.88258 46.7027 4.75736C45.5774 3.63214 44.0513 3 42.46 3V3Z" fill="#E6E6E6" id="id_101"></path>
<path d="M58.9998 41.9999L40.4498 25.4199C40.2643 25.2455 40.0194 25.1484 39.7648 25.1484C39.5102 25.1484 39.2653 25.2455 39.0798 25.4199L35.3198 29.1799C35.1454 29.3654 35.0483 29.6103 35.0483 29.8649C35.0483 30.1195 35.1454 30.3644 35.3198 30.5499L51.8298 49.1099C52.2858 49.6265 52.8436 50.0433 53.4682 50.3341C54.0929 50.625 54.7709 50.7835 55.4598 50.7999H55.6098C56.629 50.7962 57.6234 50.4849 58.4626 49.9066C59.3019 49.3282 59.947 48.51 60.3134 47.5589C60.6798 46.6078 60.7504 45.5682 60.516 44.5763C60.2816 43.5844 59.7531 42.6864 58.9998 41.9999V41.9999Z" fill="#615761" id="id_102"></path>
<path d="M14.83 3.00002C14.6984 2.99926 14.5679 3.02448 14.4461 3.07425C14.3243 3.12401 14.2135 3.19734 14.12 3.29002L3.29002 14.12C3.19734 14.2135 3.12401 14.3243 3.07425 14.4461C3.02448 14.5679 2.99926 14.6984 3.00002 14.83C3.00002 15.0952 3.10537 15.3496 3.29291 15.5371C3.48045 15.7247 3.7348 15.83 4.00002 15.83H14.83C15.0952 15.83 15.3496 15.7247 15.5371 15.5371C15.7247 15.3496 15.83 15.0952 15.83 14.83V4.00002C15.83 3.7348 15.7247 3.48045 15.5371 3.29291C15.3496 3.10537 15.0952 3.00002 14.83 3.00002V3.00002Z" fill="#C0BDBA" id="id_103"></path>
<path d="M46.0001 20L36.2501 10.25C36.0627 10.0638 35.8093 9.95923 35.5451 9.95923C35.2809 9.95923 35.0275 10.0638 34.8401 10.25L20.0901 25C19.9039 25.1874 19.7993 25.4408 19.7993 25.705C19.7993 25.9692 19.9039 26.2227 20.0901 26.41L29.8301 36.16C29.9235 36.2527 30.0344 36.326 30.1562 36.3758C30.278 36.4256 30.4085 36.4508 30.5401 36.45C30.6717 36.4508 30.8022 36.4256 30.924 36.3758C31.0459 36.326 31.1567 36.2527 31.2501 36.16L46.0001 21.39C46.0928 21.2966 46.1661 21.1858 46.2159 21.0639C46.2656 20.9421 46.2909 20.8116 46.2901 20.68C46.2838 20.4246 46.1801 20.1813 46.0001 20Z" fill="#FFB454" id="id_104"></path>
<path d="M48.6299 16.14L39.6299 7.13996C39.2491 6.75898 38.797 6.45676 38.2994 6.25056C37.8018 6.04436 37.2685 5.93823 36.7299 5.93823C36.1912 5.93823 35.6579 6.04436 35.1603 6.25056C34.6627 6.45676 34.2106 6.75898 33.8299 7.13996L32.8299 8.13996C32.6436 8.32732 32.5391 8.58077 32.5391 8.84496C32.5391 9.10914 32.6436 9.36259 32.8299 9.54996L46.1599 23C46.2528 23.0937 46.3634 23.1681 46.4853 23.2188C46.6071 23.2696 46.7378 23.2958 46.8699 23.2958C47.0019 23.2958 47.1326 23.2696 47.2544 23.2188C47.3763 23.1681 47.4869 23.0937 47.5799 23L48.6299 22C49.0199 21.6182 49.3298 21.1623 49.5414 20.6592C49.7529 20.1561 49.8619 19.6158 49.8619 19.07C49.8619 18.5242 49.7529 17.9838 49.5414 17.4807C49.3298 16.9776 49.0199 16.5217 48.6299 16.14V16.14Z" fill="#e9bceb" id="id_105"></path>
<path d="M19.4601 22.9199C19.2728 22.7337 19.0193 22.6292 18.7551 22.6292C18.4909 22.6292 18.2375 22.7337 18.0501 22.9199L17.0001 23.9999C16.6167 24.3793 16.3124 24.831 16.1047 25.3288C15.897 25.8265 15.79 26.3606 15.79 26.8999C15.79 27.4393 15.897 27.9733 16.1047 28.4711C16.3124 28.9689 16.6167 29.4205 17.0001 29.7999L26.0001 38.7999C26.38 39.1806 26.8313 39.4826 27.328 39.6887C27.8248 39.8947 28.3573 40.0008 28.8951 40.0008C29.4329 40.0008 29.9655 39.8947 30.4622 39.6887C30.959 39.4826 31.4102 39.1806 31.7901 38.7999L32.8501 37.7499C32.9428 37.6565 33.0161 37.5457 33.0659 37.4239C33.1157 37.302 33.1409 37.1716 33.1401 37.0399C33.1409 36.9083 33.1157 36.7779 33.0659 36.656C33.0161 36.5342 32.9428 36.4234 32.8501 36.3299L19.4601 22.9199Z" fill="#e8b7eb" id="id_106"></path>
<path d="M35.8799 45.97H16.1499C15.5976 45.97 15.1499 46.4177 15.1499 46.97V49.59C15.1499 50.1423 15.5976 50.59 16.1499 50.59H35.8799C36.4322 50.59 36.8799 50.1423 36.8799 49.59V46.97C36.8799 46.4177 36.4322 45.97 35.8799 45.97Z" fill="#FFD845" id="id_107"></path>
<path d="M40.51 53.8301H39.05V49.5901C39.05 49.3249 38.9447 49.0705 38.7571 48.883C38.5696 48.6954 38.3152 48.5901 38.05 48.5901H14C13.7348 48.5901 13.4804 48.6954 13.2929 48.883C13.1054 49.0705 13 49.3249 13 49.5901V53.8301H11.52C11.2548 53.8301 11.0004 53.9354 10.8129 54.123C10.6254 54.3105 10.52 54.5649 10.52 54.8301C10.52 55.0953 10.6254 55.3497 10.8129 55.5372C11.0004 55.7247 11.2548 55.8301 11.52 55.8301H40.52C40.7852 55.8301 41.0396 55.7247 41.2271 55.5372C41.4147 55.3497 41.52 55.0953 41.52 54.8301C41.52 54.5649 41.4147 54.3105 41.2271 54.123C41.0396 53.9354 40.7852 53.8301 40.52 53.8301H40.51Z" fill="#FFB454" id="id_108"></path>
<path d="M59 42L48.44 32.56V22.13L48.63 21.94C49.011 21.5593 49.3132 21.1072 49.5194 20.6096C49.7256 20.112 49.8317 19.5786 49.8317 19.04C49.8317 18.5014 49.7256 17.968 49.5194 17.4705C49.3132 16.9729 49.011 16.5208 48.63 16.14L48.44 16V9.00002C48.44 7.40872 47.8079 5.88259 46.6827 4.75738C45.5574 3.63216 44.0313 3.00002 42.44 3.00002H14.83C14.6984 2.99926 14.5679 3.02448 14.4461 3.07425C14.3243 3.12401 14.2135 3.19734 14.12 3.29002L3.29002 14.12C3.19734 14.2135 3.12401 14.3243 3.07425 14.4461C3.02448 14.5679 2.99926 14.6984 3.00002 14.83V55C3.00002 56.5913 3.63216 58.1174 4.75738 59.2427C5.88259 60.3679 7.40872 61 9.00002 61H42.46C44.0513 61 45.5774 60.3679 46.7027 59.2427C47.8279 58.1174 48.46 56.5913 48.46 55V45.3L51.85 49.09C56.73 54.2 64.06 46.86 59 42ZM41.24 26.13L45.24 22.13L46.13 23.02C46.2127 23.0978 46.3072 23.1619 46.41 23.21V30.8L41.24 26.13ZM30.54 34L22.21 25.67L35.52 12.35L43.86 20.68L30.54 34ZM30.73 37L30.38 37.35C29.9774 37.7386 29.4396 37.9558 28.88 37.9558C28.3204 37.9558 27.7827 37.7386 27.38 37.35L18.38 28.35C18.178 28.1559 18.0172 27.923 17.9074 27.6652C17.7976 27.4075 17.741 27.1302 17.741 26.85C17.741 26.5698 17.7976 26.2926 17.9074 26.0348C18.0172 25.777 18.178 25.5441 18.38 25.35V25.35L18.73 25L30.73 37ZM46.73 17.05L47.2 17.51C47.3996 17.7055 47.5581 17.9389 47.6663 18.1965C47.7746 18.4541 47.8303 18.7306 47.8303 19.01C47.8303 19.2894 47.7746 19.566 47.6663 19.8235C47.5581 20.0811 47.3996 20.3145 47.2 20.51L46.85 20.86L46 20L34.9 8.90002L35.25 8.55002C35.4448 8.34922 35.678 8.18959 35.9356 8.08057C36.1933 7.97156 36.4702 7.91539 36.75 7.91539C37.0298 7.91539 37.3067 7.97156 37.5644 8.08057C37.822 8.18959 38.0552 8.34922 38.25 8.55002L46.73 17.05ZM13.83 6.41002V13.83H6.41002L13.83 6.41002ZM46.44 55C46.44 56.0609 46.0186 57.0783 45.2684 57.8284C44.5183 58.5786 43.5009 59 42.44 59H9.00002C7.93915 59 6.92173 58.5786 6.17159 57.8284C5.42144 57.0783 5.00002 56.0609 5.00002 55V15.83H14.83C15.0952 15.83 15.3496 15.7247 15.5371 15.5371C15.7247 15.3496 15.83 15.0952 15.83 14.83V5.00002H42.46C43.5209 5.00002 44.5383 5.42144 45.2884 6.17159C46.0386 6.92173 46.46 7.93915 46.46 9.00002V14L39.63 7.14002C39.2493 6.75904 38.7972 6.45682 38.2996 6.25062C37.802 6.04442 37.2686 5.93829 36.73 5.93829C36.1914 5.93829 35.658 6.04442 35.1604 6.25062C34.6629 6.45682 34.2108 6.75904 33.83 7.14002L32.83 8.14002C32.6438 8.32738 32.5392 8.58083 32.5392 8.84502C32.5392 9.1092 32.6438 9.36265 32.83 9.55002L34.16 10.89L20.8 24.25L19.46 22.92C19.2727 22.7338 19.0192 22.6292 18.755 22.6292C18.4908 22.6292 18.2374 22.7338 18.05 22.92L17 24C16.6166 24.3794 16.3123 24.8311 16.1046 25.3288C15.8969 25.8266 15.7899 26.3606 15.7899 26.9C15.7899 27.4394 15.8969 27.9734 16.1046 28.4712C16.3123 28.969 16.6166 29.4206 17 29.8L26 38.8C26.3799 39.1807 26.8312 39.4827 27.3279 39.6888C27.8247 39.8948 28.3572 40.0009 28.895 40.0009C29.4328 40.0009 29.9653 39.8948 30.4621 39.6888C30.9589 39.4827 31.4101 39.1807 31.79 38.8L32.85 37.75C32.9427 37.6566 33.016 37.5458 33.0658 37.4239C33.1156 37.3021 33.1408 37.1716 33.14 37.04C33.1408 36.9084 33.1156 36.7779 33.0658 36.6561C33.016 36.5343 32.9427 36.4235 32.85 36.33L32 35.41L36 31.41L46.44 43.09V55ZM57.77 47.89C57.4738 48.1822 57.1215 48.4113 56.7343 48.5635C56.3471 48.7158 55.9331 48.788 55.5172 48.7759C55.1014 48.7637 54.6923 48.6674 54.3146 48.4928C53.937 48.3183 53.5987 48.069 53.32 47.76L37.4 30L39.83 27.57L57.64 43.46C57.949 43.7387 58.1983 44.077 58.3728 44.4546C58.5474 44.8323 58.6437 45.2414 58.6559 45.6572C58.668 46.0731 58.5958 46.4871 58.4435 46.8743C58.2913 47.2615 58.0622 47.6138 57.77 47.91V47.89Z" fill="black" id="id_109"></path>
<path d="M35.88 46H16.15C15.8848 46 15.6304 46.1054 15.4429 46.2929C15.2554 46.4804 15.15 46.7348 15.15 47V48.62H14C13.7348 48.62 13.4804 48.7254 13.2929 48.9129C13.1054 49.1004 13 49.3548 13 49.62V53.86H11.52C11.2548 53.86 11.0004 53.9654 10.8129 54.1529C10.6254 54.3404 10.52 54.5948 10.52 54.86C10.52 55.1252 10.6254 55.3796 10.8129 55.5671C11.0004 55.7546 11.2548 55.86 11.52 55.86H40.52C40.7852 55.86 41.0396 55.7546 41.2271 55.5671C41.4147 55.3796 41.52 55.1252 41.52 54.86C41.52 54.5948 41.4147 54.3404 41.2271 54.1529C41.0396 53.9654 40.7852 53.86 40.52 53.86H39.05V49.59C39.05 49.3248 38.9447 49.0704 38.7571 48.8829C38.5696 48.6954 38.3152 48.59 38.05 48.59H36.88V47C36.88 46.7348 36.7747 46.4804 36.5871 46.2929C36.3996 46.1054 36.1452 46 35.88 46ZM17.15 48H34.88V48.62H17.15V48ZM37.05 53.86H15V50.59H37.05V53.86Z" fill="black" id="id_110"></path>
</svg>