<?xml version="1.0" encoding="UTF-8" standalone="no"?>
<!-- Created with Inkscape (http://www.inkscape.org/) -->

<svg
   version="1.1"
   id="svg2586"
   xml:space="preserve"
   width="682.66669"
   height="682.66669"
   viewBox="0 0 682.66669 682.66669"
   xmlns="http://www.w3.org/2000/svg"
   xmlns:svg="http://www.w3.org/2000/svg"><defs
     id="defs2590"><clipPath
       clipPathUnits="userSpaceOnUse"
       id="clipPath2600"><path
         d="M 0,512 H 512 V 0 H 0 Z"
         id="path2598" /></clipPath></defs><g
     id="g2592"
     transform="matrix(1.3333333,0,0,-1.3333333,0,682.66667)"><g
       id="g2594"><g
         id="g2596"
         clip-path="url(#clipPath2600)"><g
           id="g2602"
           transform="translate(352.3271,7.5)"><path
             d="m 0,0 h -192.654 c -25.786,0 -47.275,19.752 -49.443,45.447 l -31.935,378.526 H 81.378 L 49.442,45.447 C 47.274,19.752 25.786,0 0,0"
             style="fill:#e8f3ff;fill-opacity:1;fill-rule:nonzero;stroke:none"
             id="path2604" /></g><g
           id="g2606"
           transform="translate(379.7363,431.4731)"><path
             d="m 0,0 -31.936,-378.526 c -2.168,-25.695 -23.656,-45.447 -49.442,-45.447 h 53.969 c 25.786,0 47.274,19.752 49.442,45.447 L 53.969,0 Z"
             style="fill:#c1e2ff;fill-opacity:1;fill-rule:nonzero;stroke:none"
             id="path2608" /></g><g
           id="g2610"
           transform="translate(192.0713,425.7095)"><path
             d="m 0,0 v 54.72 c 0,13.294 10.777,24.071 24.071,24.071 h 79.715 c 13.294,0 24.071,-10.777 24.071,-24.071 V 0"
             style="fill:none;stroke:#000000;stroke-width:15;stroke-linecap:round;stroke-linejoin:round;stroke-miterlimit:10;stroke-dasharray:none;stroke-opacity:1"
             id="path2612" /></g><g
           id="g2614"
           transform="translate(445.3672,392.3804)"><path
             d="m 0,0 h -378.735 c -14.963,0 -27.094,12.13 -27.094,27.094 0,14.964 12.131,27.094 27.094,27.094 H 0 c 14.964,0 27.095,-12.13 27.095,-27.094 C 27.095,12.13 14.964,0 0,0"
             style="fill:#89c6fc;fill-opacity:1;fill-rule:nonzero;stroke:none"
             id="path2616" /></g><g
           id="g2618"
           transform="translate(445.3672,446.5684)"><path
             d="m 0,0 h -55.032 c 14.964,0 27.095,-12.13 27.095,-27.094 0,-14.964 -12.131,-27.094 -27.095,-27.094 H 0 c 14.964,0 27.095,12.13 27.095,27.094 C 27.095,-12.13 14.964,0 0,0"
             style="fill:#27a2fb;fill-opacity:1;fill-rule:nonzero;stroke:none"
             id="path2620" /></g><g
           id="g2622"
           transform="translate(326.459,93.4043)"><path
             d="M 0,0 18.656,221.13"
             style="fill:none;stroke:#000000;stroke-width:15;stroke-linecap:round;stroke-linejoin:round;stroke-miterlimit:10;stroke-dasharray:none;stroke-opacity:1"
             id="path2624" /></g><g
           id="g2626"
           transform="translate(166.8848,314.5347)"><path
             d="M 0,0 18.656,-221.13"
             style="fill:none;stroke:#000000;stroke-width:15;stroke-linecap:round;stroke-linejoin:round;stroke-miterlimit:10;stroke-dasharray:none;stroke-opacity:1"
             id="path2628" /></g><g
           id="g2630"
           transform="translate(256,314.5347)"><path
             d="M 0,0 V -221.13"
             style="fill:none;stroke:#000000;stroke-width:15;stroke-linecap:round;stroke-linejoin:round;stroke-miterlimit:10;stroke-dasharray:none;stroke-opacity:1"
             id="path2632" /></g><g
           id="g2634"
           transform="translate(111.958,392.3804)"><path
             d="m 0,0 h -45.326 c -14.963,0 -27.094,12.13 -27.094,27.094 0,14.964 12.131,27.094 27.094,27.094 h 378.735 c 14.964,0 27.095,-12.13 27.095,-27.094 C 360.504,12.13 348.373,0 333.409,0 H 35.083"
             style="fill:none;stroke:#000000;stroke-width:15;stroke-linecap:round;stroke-linejoin:round;stroke-miterlimit:10;stroke-dasharray:none;stroke-opacity:1"
             id="path2636" /></g><g
           id="g2638"
           transform="translate(408.6113,134.0449)"><path
             d="M 0,0 21.796,258.335"
             style="fill:none;stroke:#000000;stroke-width:15;stroke-linecap:round;stroke-linejoin:round;stroke-miterlimit:10;stroke-dasharray:none;stroke-opacity:1"
             id="path2640" /></g><g
           id="g2642"
           transform="translate(81.5928,392.3804)"><path
             d="m 0,0 28.638,-339.434 c 2.168,-25.694 23.656,-45.446 49.442,-45.446 h 192.654 c 25.787,0 47.275,19.752 49.443,45.446 l 3.889,46.108"
             style="fill:none;stroke:#000000;stroke-width:15;stroke-linecap:round;stroke-linejoin:round;stroke-miterlimit:10;stroke-dasharray:none;stroke-opacity:1"
             id="path2644" /></g></g></g></g></svg>
