<svg height="512pt" viewBox="-54 0 512 512.00087" width="512pt" xmlns="http://www.w3.org/2000/svg"><path d="m294.273438 131.097656c0 51.179688-41.492188 92.671875-92.671876 92.671875-51.179687 0-92.671874-41.492187-92.671874-92.671875 0-51.179687 41.492187-92.671875 92.671874-92.671875 51.179688 0 92.671876 41.492188 92.671876 92.671875zm0 0" fill="#575757"/><path d="m151.53125 131.097656c0-43.847656 30.457031-80.582031 71.371094-90.207031-6.839844-1.609375-13.972656-2.464844-21.300782-2.464844-51.183593 0-92.671874 41.492188-92.671874 92.671875 0 51.179688 41.488281 92.671875 92.671874 92.671875 7.328126 0 14.460938-.855469 21.300782-2.464843-40.914063-9.625-71.371094-46.355469-71.371094-90.207032zm0 0" fill="#454545"/><path d="m201.601562 491.695312c-87.671874 0-159-71.324218-159-158.996093s71.328126-159 159-159c87.671876 0 159 71.328125 159 159s-71.328124 158.996093-159 158.996093zm0 0" fill="#666667"/><path d="m222.359375 317.871094v-142.816406c-6.796875-.890626-13.722656-1.355469-20.757813-1.355469-87.671874 0-159 71.328125-159 159 0 81.621093 61.828126 149.066406 141.109376 157.984375zm0 0" fill="#575757"/><path d="m201.601562 131.097656c-111.507812 0-201.378906 89.679688-201.601562 201.191406-.148438 75.765626 41.496094 141.824219 103.175781 176.390626 15.023438 8.421874 33.917969-.046876 37.675781-16.851563l60.75-271.625 60.75 271.625c3.746094 16.761719 22.59375 25.296875 37.582032 16.90625 61.617187-34.492187 103.269531-100.398437 103.269531-176.035156 0-111.339844-90.261719-201.601563-201.601563-201.601563zm0 0" fill="#fb695b"/><path d="m42.601562 332.285156c.210938-104.238281 78.898438-189.480468 180.265626-200.070312-6.988282-.734375-14.082032-1.117188-21.265626-1.117188-111.445312 0-201.378906 89.742188-201.601562 201.1875-.152344 75.769532 41.496094 141.824219 103.175781 176.394532 11.328125 6.351562 24.859375 3.089843 32.441407-6.101563-56.046876-35.898437-93.15625-98.765625-93.015626-170.292969zm0 0" fill="#f85647"/><path d="m58.699219 366.863281c32.417969 0 58.695312 26.277344 58.695312 58.695313 0 29.304687-21.472656 53.585937-49.539062 57.984375-26.871094-23.84375-47.332031-54.757813-58.457031-89.824219 10.457031-16.15625 28.625-26.855469 49.300781-26.855469zm0 0" fill="#575757"/><path d="m45.742188 368.300781c-15.183594 3.425781-28.136719 12.742188-36.34375 25.417969 11.125 35.066406 31.585937 65.980469 58.457031 89.824219 10.941406-1.714844 20.867187-6.460938 28.921875-13.335938-25.925782-27.78125-44.085938-62.902343-51.035156-101.90625zm0 0" fill="#454545"/><g fill="#575757"><path d="m134.519531 246.085938c0 20.839843-16.898437 37.738281-37.742187 37.738281s-37.738282-16.898438-37.738282-37.738281c0-20.84375 16.894532-37.742188 37.738282-37.742188s37.742187 16.898438 37.742187 37.742188zm0 0"/><path d="m344.503906 366.863281c-32.417968 0-58.699218 26.277344-58.699218 58.695313 0 29.304687 21.472656 53.585937 49.542968 57.984375 26.871094-23.84375 47.328125-54.757813 58.453125-89.824219-10.457031-16.15625-28.621093-26.855469-49.296875-26.855469zm0 0"/><path d="m345.851562 276.246094c0 17.480468-14.167968 31.652344-31.648437 31.652344s-31.648437-14.171876-31.648437-31.652344c0-17.476563 14.167968-31.648438 31.648437-31.648438s31.648437 14.171875 31.648437 31.648438zm0 0"/></g><path d="m222.378906 45.675781c-4.144531 0-7.503906-3.359375-7.503906-7.5v-14.425781c0-13.097656 10.652344-23.75 23.75-23.75 4.144531 0 7.5 3.359375 7.5 7.5 0 4.144531-3.355469 7.503906-7.5 7.503906-4.820312 0-8.746094 3.921875-8.746094 8.746094v14.425781c0 4.140625-3.359375 7.5-7.5 7.5zm0 0" fill="#454545"/><path d="m180.824219 45.675781c-4.144531 0-7.503907-3.359375-7.503907-7.5v-14.425781c0-4.824219-3.921874-8.746094-8.746093-8.746094-4.140625 0-7.5-3.359375-7.5-7.503906 0-4.140625 3.359375-7.5 7.5-7.5 13.097656 0 23.75 10.652344 23.75 23.75v14.425781c0 4.140625-3.355469 7.5-7.5 7.5zm0 0" fill="#454545"/><path d="m235.6875 92.324219c-4.144531 0-7.5-3.359375-7.5-7.503907v-11.507812c0-4.140625 3.355469-7.5 7.5-7.5s7.5 3.359375 7.5 7.5v11.507812c0 4.144532-3.355469 7.503907-7.5 7.503907zm0 0" fill="#f4f4f4"/><path d="m167.515625 92.324219c-4.144531 0-7.503906-3.359375-7.503906-7.503907v-11.507812c0-4.140625 3.359375-7.5 7.503906-7.5 4.140625 0 7.5 3.359375 7.5 7.5v11.507812c0 4.144532-3.359375 7.503907-7.5 7.503907zm0 0" fill="#f4f4f4"/></svg>